<svg xmlns="http://www.w3.org/2000/svg" xmlns:xlink="http://www.w3.org/1999/xlink" style="display: none">

	<symbol id="arrow" viewBox="0 0 50 25"><title>arrow down</title><path fill="transparent" d="M0 0l25 25L50 0"/></symbol>

	<symbol id="playstore" viewBox="0 0 450 450"><title>playstore</title><path fill-rule="evenodd" clip-rule="evenodd" d="M450 225C450 349.264 349.264 450 225 450C100.736 450 0 349.264 0 225C0 100.736 100.736 0 225 0C349.264 0 450 100.736 450 225ZM128.333 93.174C124.957 97.6277 123.077 103.106 123.077 108.969V341.027C123.077 346.473 124.704 351.589 127.644 355.862L254.156 224.16L128.333 93.174ZM306.782 169.374L265.739 212.1L142.364 83.6609C149.068 81.7805 156.252 82.636 162.514 86.245L306.782 169.374ZM265.739 236.218L141.118 365.953C143.805 366.854 146.585 367.308 149.368 367.308C153.883 367.308 158.399 366.122 162.513 363.751L307.819 280.022L265.739 236.218ZM321.696 177.969L363.874 202.274C372.107 207.016 377.022 215.511 377.022 224.998C377.022 234.483 372.107 242.98 363.874 247.722L322.732 271.43L277.325 224.158L321.696 177.969Z"/></symbol>

	<symbol id="envelope" viewBox="0 0 512 512"><title>contact</title><path fill="#002F2F" d="M64 128v256h384V128H64zm192 139.9L93.2 144h325.6L256 267.9zM80 368V154.1l115.1 87.6L127 319l2 2 78.9-69.6L256 288l48.1-36.6L383 321l2-2-68.1-77.4L432 154.1V368H80z"/></symbol>

	<symbol id="email" viewBox="0 0 512 512"><title>email</title><path d="M448 384V141.8l-131.1 99.8L385 319l-2 2-78.9-69.6L256 288l-48.1-36.6L129 321l-2-2 68-77.4L64 142v242z"/><path d="M439.7 128H72l184 139.9z"/></symbol>

	<symbol id="github" viewBox="0 0 512 512"><title>github</title><path d="M256 32C132.3 32 32 134.9 32 261.7c0 101.5 64.2 187.5 153.2 217.9 1.4.3 2.6.4 3.8.4 8.3 0 11.5-6.1 11.5-11.4 0-5.5-.2-19.9-.3-39.1-8.4 1.9-15.9 2.7-22.6 2.7-43.1 0-52.9-33.5-52.9-33.5-10.2-26.5-24.9-33.6-24.9-33.6-19.5-13.7-.1-14.1 1.4-14.1h.1c22.5 2 34.3 23.8 34.3 23.8 11.2 19.6 26.2 25.1 39.6 25.1 10.5 0 20-3.4 25.6-6 2-14.8 7.8-24.9 14.2-30.7-49.7-5.8-102-25.5-102-113.5 0-25.1 8.7-45.6 23-61.6-2.3-5.8-10-29.2 2.2-60.8 0 0 1.6-.5 5-.5 8.1 0 26.4 3.1 56.6 24.1 17.9-5.1 37-7.6 56.1-7.7 19 .1 38.2 2.6 56.1 7.7 30.2-21 48.5-24.1 56.6-24.1 3.4 0 5 .5 5 .5 12.2 31.6 4.5 55 2.2 60.8 14.3 16.1 23 36.6 23 61.6 0 88.2-52.4 107.6-102.3 113.3 8 7.1 15.2 21.1 15.2 42.5 0 30.7-.3 55.5-.3 63 0 5.4 3.1 11.5 11.4 11.5 1.2 0 2.6-.1 4-.4C415.9 449.2 480 363.1 480 261.7 480 134.9 379.7 32 256 32z"/></symbol>

	<symbol id="greensock" viewBox="-4.725 200.945 254.84019 328.42969" stroke-width="2"><title>greensock</title><path d="M13.6 489c5.6 0 10.8 2 10.8 3.52 0 .94-1.2 3.27-1.93 3.27-.6 0-3.34-2.5-8.8-2.5-10 0-13.26 5.8-13.26 15.6 0 8.6 2.6 16 12.7 16 3 0 5.8-.4 7.3-.8v-11.4h-6.6c-.8 0-1.1-.6-1.1-1.7v-1c0-1.2.4-1.7 1.2-1.7h9.9c1.2 0 1.7.5 1.7 1.7v15c0 3.2-6.1 4-12.6 4-11.2 0-17.4-6.4-17.4-19.8 0-14.1 6.5-20.5 18.3-20.5zm17.6 18.98c0-4.66-.67-6.86-.67-7.13 0-1.07 2.33-1.33 3.06-1.33 1.3 0 1.6 2.26 2 3.73 1.9-2.73 4.2-4.26 6.5-4.26 2.2 0 3.2.9 3.2 2.2 0 1-.5 3-1.2 3-.8 0-1.2-.6-3.2-.6-3 0-5.2 3.4-5.2 3.4v20.7c0 .8-.7 1.2-2.3 1.2h-.2c-1.6 0-2.3-.5-2.3-1.3v-19.8zm29.65-9c7.73 0 11.66 5.14 11.66 14.73 0 .7-1.2 2.4-1.8 2.4H52.8c.45 6.3 3.12 9.2 8.72 9.2 4.93 0 7.66-2.4 8.26-2.4.8 0 2 2.2 2 2.8 0 1.4-4.46 3.6-10.2 3.6-9.4 0-13.86-4.8-13.86-14.9-.06-9.9 4.47-15.2 13.13-15.2zm6.6 13.07c0-5.93-2.27-8.93-6.8-8.93-4.93 0-7.53 3-7.93 8.93h14.73zM90.17 499c7.73 0 11.67 5.12 11.67 14.7 0 .68-1.2 2.35-1.87 2.35H82.1c.48 6.26 3.14 9.13 8.74 9.13 4.93 0 7.66-2.4 8.26-2.4.8 0 2 2.2 2 2.8 0 1.33-4.46 3.6-10.2 3.6-9.4 0-13.86-4.8-13.86-14.93 0-9.93 4.47-15.26 13.13-15.26zm6.67 13.05c0-5.93-2.27-8.93-6.8-8.93-4.93 0-7.53 3-7.93 8.93h14.8zm10.13-4.07c0-4.66-.67-6.86-.67-7.13 0-1.07 2.33-1.33 3.07-1.33 1.33 0 1.66 2.26 2 3.73 2.4-2.67 5.66-4.26 8.8-4.26 5.8 0 9.2 3.4 9.2 9.1v19.6c0 .8-.68 1.2-2.28 1.2h-.2c-1.6 0-2.3-.5-2.3-1.3v-19.2c0-3.5-2.1-5.5-5.8-5.5-2.6 0-5.3 1.5-7.2 3.9v20.7c0 .8-.7 1.3-2.3 1.3h-.2c-1.6 0-2.3-.5-2.3-1.3V508zm32.52 11.4c1 0 3.8 2.6 8.3 2.6 2.4 0 5.3-.74 5.3-4.13 0-6.67-16.4-4.07-16.4-17.4 0-8.33 6.8-11.6 13.4-11.6 6 0 10.2 2.07 10.2 3.94 0 1.5-1.8 4.9-3.2 4.9-.8 0-2.5-1.4-6.3-1.4-4.4 0-5.3 2-5.3 3.3 0 6.4 16.3 3.8 16.3 17.1 0 9.4-6.6 12.5-12.8 12.5-8.6 0-13.3-3.1-13.3-5 0-1.7 2.2-5 3.4-5zm39.6-20.46c9 0 13.6 5.4 13.6 15.2 0 9.86-4.7 15.25-13.7 15.25s-13.8-5.4-13.8-15.26c0-9.8 4.7-15.1 13.7-15.1zm5.2 15.2c0-5.67-1.6-8.6-5.2-8.6s-5.3 2.93-5.3 8.6c0 5.66 1.6 8.66 5.2 8.66s5.2-3 5.2-8.67zM211 498.9c4 0 9.4 1.33 9.4 3.93 0 1.07-2.07 4.33-3 4.33-.2 0-.54-.2-1-.4-1-.53-2.54-1.26-4.94-1.26-4.53 0-6.4 2.8-6.4 8.6s1.74 8.66 6.07 8.66c2.67 0 4.47-.8 5.53-1.34.47-.2.8-.33 1-.33 1.27 0 2.93 3.2 2.93 4.2 0 3.2-8.1 3.9-9.9 3.9-9.7 0-14.3-5-14.3-15.1 0-10 4.4-15.4 14.5-15.4zm13.66-10.8c0-1.2 1-1.8 3.4-1.8h1.6c2.4 0 3.4.6 3.4 1.8v22.4l.2.06 6.86-10.26c.67-.93 1.8-1.07 3.47-1.07h2c2.1 0 3.2.34 3.2.87 0 .26-.2.66-.6 1.13l-7.9 11.2 9.2 14.6c.2.53.4.86.4 1.2 0 .53-1 .86-3.2.86h-2.4c-1.7 0-2.9-.2-3.4-1.1l-7.9-13h-.2v12.2c0 1.2-1 1.8-3.4 1.8H228c-2.4 0-3.4-.6-3.4-1.8V488zM35.86 323.44c-8.17 3.83-29.75 21.1-33.9 26.22-4.3 5.1-5.6-2.88-1.1-16.15 3.5-10.7 12.45-25.2 27.47-37.7 8.8-7.2 28.14-17.6 39.97-23.6 2.4-1.3 33.4-14.4 61.07-20.9 2.4-.6-2.88 4-3.68 6.6-4.2 12.1-87.2 64.2-87.2 64.2l-2.7 1.5zm116.85 146.6c1.5 8.63.2 9.27-8.7 10.4-8.9 1.1-15.5-2.25-17.9-4.5-2.4-2.23-2.9-7.18-.5-11.66 1.5-2.88 2.9-3.83 3.7-7.35.8-3.36 1.5-4.16 2.1-5.44.7-1.2.8-2.3 1-10.1.2-7.9 0-22.6.8-28.8.8-6.4 28.5 2.9 28.5 2.9s-6.5 16.3-8.3 20.3c-1.7 4-1.6 11.6-1.6 13.2 0 1.6-.6 4.8-1.1 4.9-.4.1 1.6 4.3.7 6.7-.6 2.2 1.5 8 1.6 9.3zm10.6-244.44c-.9-6.08 0-18.07 1.3-20 4-5.42 25.1-6.06 29.6.33 1.9 2.88 1.8 9.6 1.5 13.9-.3 4.33-1.4 13.6-1.6 16.64-.1 2.24-23.3 5.75-28.4-.32-1.4-1.6-2.2-10.55-2.2-10.55zm47 228.93c9.8 7.03 17.3 8.3 22.3 10.87 5 2.56 3.7 7.5-4.6 8.95-6.7 1.28-17.2-1.28-24.3-1.28-7 0-22.7.8-26.8-2.07-4.8-3.36-2.7-9.6-2.7-9.6 1.3-3.5 4.5-11.35 3.5-17.74-.9-6.4-2.2-9.9-4.6-15.83-2.4-5.9-4.1-20.46-1.9-21.26 2.3-.8 1.6 0 4.5.64 2.9.7 6.1 1.6 12.3 1.6 6.3 0 13.1-.9 15.5-1.4 2.4-.5 4.4-.9 3.6 4-.8 5-3.2 14.2-3.33 21.4-.2 7.2-.2 15.5.3 17s4 3.1 6.53 4.8z"/><path d="M176.05 241.6c-17.58 15.17-51.64 19.33-102.15 38.83-12.95 4.96-47.48 19.83-55.8 35.33 27.98-16.14 38.37 6.08 40.6 28.94 2.1 21.42 12.8 32.6 40.3 31.97 28.3-.64 36.93 15.83 44.76 35.17 15.2-74.02 39.5-88.4 55.15-101.03 33.3-27-7.6-74.6-22.8-69.2z"/><path d="M176.05 241.6c-42.2 14.7-83.93 18.37-133 48.6-11.68 7.18-36.3 23.5-41.1 54.66 17.9-19.82 59.32-44.76 110-60.6 25.57-7.98 44.28-13.26 66.98-22.05-1.6-10.2-1.6-14.2-2.88-20.6zm53.88 87.6s-3.04 10.38-9.12 13.74c0 0-4.4 1.6-13.4-3.36-2.5-1.43-4.5-6.4-4.3-8 .2-3.83 2.6-5.58 2.6-5.58s2.6-4.32 5.6-4.16c3.1.16 8.2.64 9.8-.8 1.5-1.6 9.3 2.88 9 8.15z"/><path d="M164.7 228.64s-.64 8.15-1.76 13.27c-.16 1-4.95 1.5-8.47 2.9 6.7 19.2 47.16 19.1 52.44 9.6-2.5-1.7-7.6-4.5-10-5.4-2.4-.9-2.2-.8-2.4-5.3-.1-4.4-.5-12.8-.8-15-.3-2.2-25.1-2.2-28.9 0z"/><path d="M166.3 228.64s0 4.63-.48 9.1c-.16 2.1-.32 3.36-.64 4.96-.16.96 5.44 4.8 7.04 13.27 7.67 17.1 25.42 8.64 32.77.48-2.6-1.76-6.8-4.15-11.6-6.07-2.4-.96-1.3-3.04-1.5-7.52-.2-4.47-.8-11.03-1.1-13.43-.3-2.4-20.8-3.03-24.6-.8z"/><path d="M164.7 228.64s-.16 2.87-.64 6.23c2.08 2.08 4.8 4.96 6.88 6.72 1.44 1.2 4.95 1.1 8.15 1.1 2.8 0 5.4.3 6.5-.3 2.5-1.3 6.2-4.5 8.3-6.9-.2-2.9-.3-5.6-.5-6.9-.2-2.3-25-2.3-28.8 0z"/><path d="M179.25 240.8c-1.92 0-4.16-.17-5.92-.5-.8-.15-1.6-.63-2.23-.95-1.12-.8-2.24-1.76-3.52-2.72-2.56-1.92-2.72-3.04-2.72-3.52 1.12-10-.32-18.5-.32-18.5s-1.12-4.3 4.96-5.4c6.07-1.1 9.75-1.3 9.75-1.3s3.84 0 9.75 1.3c6.08 1.1 4.96 5.5 4.96 5.5s-1.44 8.5-.32 18.6c0 .5-.16 1.6-2.72 3.6-2.24 1.6-4 3.4-5.75 3.7-1.76.3-4 .5-5.92.5z"/><path d="M179.25 203.7c-10.55 0-12.63 2.87-15.67 6.07-.64.8-.16 5.6.96 15.83h1.44s-.96-2.88-.8-6.24c.16-3.35.8-3.2.32-4-.64-.95-1.92-2.55.96-4.15 2.88-1.6 7.35 1.3 12.8 1.5 5.42-.1 10.06-3 12.94-1.4 2.88 1.6 1.6 3.2.96 4.2-.64 1 .16.7.32 4 .16 3.4-.8 6.3-.8 6.3h1.44c.96-10.2 1.6-14.7 1.12-15.5-2.72-3.5-5.44-6.2-16-6.4zm50.68 125.97s-3.04 9.75-8.96 13.1c-1.28-.63-1.12-1.6-2.23-3.03-.32-.47-1.44-.8-1.92-1.27-.48-.48-.32-1.28-1.12-1.92-.64-.64-1.12-.16-1.76-.64-.64-.6-.8-1.4-1.28-1.9-.32-.3-1.6-.5-1.92-.8-.8-.8-7.83-2.2-7.5-3.8.63-2.4 1.9-4.1 1.9-4.1s3.05-4.4 6.08-4.3c3.04.2 5.92.8 7.52-.6 1.76-1.6 11.67 4.3 11.2 9.5z"/><path d="M209.15 259s10.07-2.4 16.94 4.17c6.8 6.7 6.4 15.02 4.3 20.14 1.7 2.1 4.9 7.9 2.5 14.8 10.5 9 5.9 22.7-3.5 31.8 0 0-2.3-8.3-11.2-8.8.3-3.2-8.3-5.7-4.3-14-6.1-1.4-5.9-5.6-6.9-10.7-.8-5.1 2.1-37.2 2.1-37.2z"/><path d="M205.47 263.5s11.67-5.93 18.54.8c6.9 6.7 5 14.06 2.9 19.17 1.8 2.08 5.9 8 3.4 15.03-.5 1.6-4 1.6-6.5 5.75 6.4-3.67 10.4-2.7 11.9 1.92 2.3 7.2-2.7 15.83-7 20.62 0-.2-.2-.4-.2-.5-.6 2.4-1.4 7-6.2 12.1-2.4 2.5-4.3 2.2-7 1.6-3.2-.8-4.3-2.3-8.8-4.7-2.5-1.5-1.1-3.2-1.1-4.7 0-.4.3-.8.8-1.5.3-.8 1.3-2.1 2.7-3.5 0 0 2.1-2.9 5.1-2.7 3.1.1 6.3-.5 7.1-1.3 0-5.6-6.4-5.8-4.2-15.4.2-.5 1-1.3 3.5-1.6-3.8-.8-5.6-1-8.3-3.5-1.9-1.8-3.3-4-3.8-6.9-.9-5-2.5-31-2.5-31zm-33.74-10.08c-.95-1.28-5.9-7.68-15.34-10.24-2.8-.8-4.5 1.44-7.2 3.04-.8-.48-4.4-2.08-6.3-.96s-3.2 2.24-5.1 3.04c-1-.48-3.5-.48-5.6.32-2.1.64-5.3 2.08-8.3 6.23-1.9 6.88 33.9 1.76 33.9 1.76l13.9-3.1z"/><path d="M172.06 253.42c-5.12-1.76-4.32-7.68-15.67-8.64-2.3-.16-3.7 1.6-5.3 2.72.8.8 1.6 2.08 2.1 3.36-1.5-1.6-4-3.68-6.6-4.16-2.4-.48-4 1.28-6.6 2.56.5.48.9 1.28 1.6 2.24-2.3-1.44-3.9-1.92-6.9-.8-2.1.64-6.1 2.4-9.1 6.7-2 6.9 32.3-.8 32.3-.8l14-3.18zm30.05 2.55s0-1.76-.1-3.35c0-.32-1.3-1.12-1.3-1.44l-.3-.32s2.6-1.44 4.5-.64c2.1.64 3.2 3.36 3.2 3.36 3.7-1.28 4 .16 5.8 2.07 3.9-.8 4.3.64 6.7 4.16 0 0-2.8-.4-8.4.5-5.4.8-9.9-4.5-9.9-4.3z"/><path d="M201.47 255.17s.96-.8.64-.96c1.8-.9 4.2-2 5.3 1 3.7-1.3 4.2.5 5.9 2.4 4.5-2.1 4.8.5 5.2 1.6-1.4 0-3.5.2-6.4.5-5.4.8-10.7-4.6-10.5-4.5z"/><path d="M147.12 251.18s9.1 3.2 16.78 2.7c7.68-.63 20.8-1.26 27.82 2.9 0 0 7.2-2.57 13.9-.8 6.72 1.75 19.03 13.26 15.36 25.4-.32.8-2.4 2.1-4.8 2.9 0 0 1.28 5.42-.96 9.9-2.24 4.32-7.2 12.63-7.35 24.14-.16 1.92-.48 5.92-.8 7.83-12.47-.48-31.66-5.1-50.52-4.8.16-2.07.32-3.35.48-5.43h.48c-.9-5.27-1.2-8-2.2-12-6.1-3.82-12.4-8.3-17.9-16.77-5.3-8.48 9.8-35.97 9.8-35.97zm61.7 86.33s9.92 35.5-1.75 50.4c0 0 1.76 6.9-2.24 14.2-.64 3.2-1.44 6.1-1.92 9.3-2 13.3-5.6 18.9-6.5 40.2l-9.6-.1s-1.1-15.3-4.4-23.5c-1.9-4.6-9.4-10.8-9.1-17.1.4-4.8 1.3-8.8 9.5-15.2.7-9.2-8.6-18-7.2-52.6l33.5-5.4z"/><path d="M205.95 336.07c2.56 16.3 8.47 40.44-2.24 52.27.5 2.24.8 5.44.2 9.12-.3 1.9-.9 4-1.7 6.23-1.6 3.8-2.2 9.4-2.7 12.7-2.1 13.2-2.1 13.9-3 35.1l-9.6-.2s-1.1-15.4-4.4-23.5c-1.9-4.7-5.9-8.7-6.2-14.9-.3-4.8 3-14.4 11-14.1-.5-19.4-9.4-15.5-11.8-55.8l30.6-7zm-58.83-84.9s3.5 1.13 7.35 1.45c3.84.32 8 0 11.67-.16 7.67-.64 18.55-1.44 25.74 2.7 0 0 4-1.27 8.3-.95 1.93.2 3.85 1.8 6.1 2.4 7.02 1.8 13.74 13.5 10.7 24-.32.8-2.56 0-5.12.8.48 2.3.8 7.4-1.76 12.8-2.7 5.5-6.23 12.5-5.6 25.9-16.78-.8-24.3-1.9-40.92-2.7-1.44-5.9-2.4-11.8-2.56-14.8 2.24-1.1 3.52-2 5.28-4-4.8.8-6.7.5-9.6-1.1-2.87-1.6-8-6.7-10.54-10.1-.32-.3-2.08 5-6.08 5.1-1.44-2 4.64-8 3.52-10.2-4-8.1 3.52-31 3.52-31z"/><path d="M207.23 322.8s.32 5.75.32 7.2c0 1.6 1.27 6.4 1.43 8.63-1.75 3.03-9.43 9.9-23.34 12.47-13.75 2.87-31.97-18.7-31.97-18.7.48-2.1 2.08-8.16 3.2-11.36.16-.32.48-1.12.48-1.44 1.44-2.08 49.88 3.2 49.88 3.2z"/><path d="M203.7 323.28c0 4 .65 6.87 1.13 9.43.8 4.7 2.08 7.7 2.08 10.8 0 9.3-12.1 7.7-22.3 8-13.7 2.9-25.4-18.7-25.4-18.7 1-3.7 1.6-7.8 3.1-11.3.2-1.9.5-4.3.7-5.4 19.5 0 33.3 1.1 41.3 1.9.3 1.8 0 4.8-.3 5.5z"/><path d="M188.36 343.9s-8.47-18.86-33.9-13.27c-6.07 17.1-14.22 36.77-8.94 58.03-5.28 7.2-11.35 11.2-11.35 24.46 0 13.27.64 15.5.64 15.5l18.7.97s6.1-7.9 8.5-16.4c.7-2.4 1.3-6.7.8-11.7.7-1 3.4-3.2 3.7-7.5 0 0 9.1-4.8 14.4-16.5 5-10.6 3.7-19.7 7.5-33.8z"/><path d="M188.36 343.9c-.48-1.76-6.87-19.02-30.53-13.9-13.9 37.08-8.8 52.43-6.72 59.14-9.4 12-13.7 14.55-11.8 38.85h12.5c5.8-9.2 7.1-12.5 7.4-24.5 0-.5-1.7.9-3 2.5 1-5 3.7-6 5.8-9 1-1.3 1.8-3.2 1.8-5.8 11.2-7.5 15.4-17 17.8-26.7 1.9-6.7 4.2-17.8 7.1-20.8z"/><path d="M148.87 318.16s4.32.16 8.16 1.44c3.68 1.28 3.68 2.08 5.1 3.68 1.45 1.6 4.97 4 4.33 6.4-.32 1.27-1.12 1.6-2.24 2.7-.48.5-4 4.33-4.8 4.8-.47.33-1.1.8-1.6 1.13l-2.4 1.6c-1.6.8-2.7 1.3-4.47 1.2 0 0-4-.1-6.55-2.8 0 0-.32-1.3.32-1.9 0 0-3.36-2.8-4.32-4.8-.96-1.9-.96-4.6-.32-6 .32-1.4 6.56-5.4 8.8-7.2zm4 155.55l-.48 4s-1.5 1.8-12.2 1.6c-10.9-.1-13.8-3.5-14.7-5.2l-.7-4.1s2-3 2.5-3c3.5.3 15.5 5.1 23.8 6.4.8 0 .9.3 1.6.5zm23.18-8.1c0 1.8-.16 1.8-.16 3.5 1.9 1.5 6.7 2.3 15.8 2.1 13.2-.3 25.6 4 40.6 1.5l.1-2.8-1.5-.1-53.3-4.3-1.8.4z"/><path d="M187.72 471.16h4c8.63-.32 16.8 1.6 25.58 2.07 4.63-.16 10.4-1.28 9.9-4.63l-45.4-3.84c-2.7 3.04-.63 5.6 5.92 6.4zm-52.1-67.3c1.43.95 11.18 6.7 27 5.9-.32 3.04-.16 8.96-7.2 19.35-3.5 5.2-6.55 14.1-7.18 25.5.16 2.6 1.6 4.8-.32 8.2.64 2.1 3.2 6.3 4.47 8.8 1.2 2.6 1.9 5.5-6.6 5.6-8.7.2-22.6-.8-20.7-7.5.9-3.5 3.7-7.2 4-8.6.3-1.4.3-5.7 3-8.6 2.4-8 1.6-15.6 1.1-22.8-.8-7.5-1-19.5 2.2-25.5zm14.85-130.3c11.35-15.2 1.76-27.34-16.46-23.66-7.3 1.44-14.7 6.55-15.1 15.82-2.4.32-7.8.64-10.5 10.56-2.1 7.67-3.2 9.1-6.9 12.94-2.4 2.72.2 8.32 1.9 12.3 6 13.76 24.2 15.04 36.5 25.43 4.2-1.12 8.5-5.75 9.8-8.8-10.3-12.3-8.1-17.1-12.3-23.5 4.5-1.6 14.7-7.82 13.3-21.1z"/><path d="M148.24 272.6c.63-.96 1.75-3.04 2.23-3.84.16-.16 1.92 2.88 2.08 2.72 4.32-7.03 5.44-17.27.48-18.22-1.12-.16-3.2-.64-4.95-1.28-3.2-1.12-6.08-1.12-11.2-.16-7.03 1.28-14.06 6.4-14.06 13.75 0 .48 4.95 1.9 6.4 7.83-2.4-3.36-6.56-7.04-11.52-3.84-5.28 3.36-2.56 11.03-9.6 19.03-2.4 2.7-2.07 5.9.5 12.3 4.14 10 23.8 15.5 34.52 25.1 2.56-1.2 4.3-3.7 5.6-5.6-7.2-7.5-10.08-14.6-12.16-19.7-2.55-5.9-5.43-9.3-11.03-13.8 2.88 1.1 5.12 2.2 6.4 3.2 1.43.9 3.5 1.1 5.43.5 6.88-2.4 10.55-12 10.87-18.1z"/><path d="M217.78 275.16c-.48 6.07-4.96 3.03-7.36 1.92-4.8-2.08-9.6-3.52-15.18-3.52-5.6 0-12.8.48-19.03 2.08-8.6 2.4-11.1 2.24-15 .32-3.8-2.08-10.5-7.2-10.5-7.2s-.1 1.6 1.5 3.68c2.1 2.56 6.7 5.75 13 7.83 3.1.96 5.5.32 8.2-.32 14.2-3.5 29.3-4.15 41.9 3.52.7.32 2.9-.64 3.9-2.08 1.3-2.1-1.1-6.3-1.1-6.3zm-72.74 60.9c1.28.8 2.88 1.3 4.63 2.73 0 0-1.43 0-2.07-.7-.8-.5-2.4-1.9-2.56-2.1zm46.2-126.77c-.48-1.5-4-4-12.15-4-8.8 0-11.4 2.7-11.6 4.1 0 .5-.7 5.6-.8 7.7 0 0 0 2.5.1 6.4.1 2.5.8 4 1.1 7.3.3 3.5 1.2 5.7 3 8.6.8.5 1.4.9 2.2 1.1 3.2.6 8.8.8 11.8 0 1.7-.5 4-3.5 4.5-6.3.6-3.4 1.3-5.8 1.4-7.9.3-2.1.4-6.8.6-8 .5-3.5-.3-9-.5-9.3zm-16.8 197.6s8.5 3.6 29.43.4c0 0-5.9 29.7-3.2 44.6 0 0 2.72 3.8 22.86 11.2 0 0 8.96 2.2 8.64 6.7 0 0 .32.9-10.55.6-10.87-.3-21.1-2.3-28.3-2.3-7.2 0-14.87.3-16.15-1.8-1.44-1.9.32-6.9 2.4-9.8 2.24-3.1 1.6-5.3 1.44-10.7-.4-14.3-11.3-29-6.5-39.2z"/><path d="M172.7 409.6c-1.12 1.6.15 7.68 1.75 13.6 1.6 5.9 5.12 9.43 5.92 19.18.8 9.6.96 10.87-1.76 16.47-2.7 5.6-3.5 10.7 6 10.87 9.5.16 14.6-.16 24.2 1.28 9.6 1.43 13 1.9 18.3 1.12 5.3-.8 6.4-2.56 4.2-4.16s-11.5-3.36-15.5-6.56c-3.8-2.87-14.7-7.67-14.9-8.95-.4-4.32-.6-19.98.2-25.1s2-12.47 2.3-14.4c.4-1.9 2-3.82-.8-3.18-2.7.64-12.9 2.07-20.6 1.6-7.7-.48-8.5-2.24-8.9-1.76z"/><path d="M178.13 459c2.72 1.28 6.7 2.24 9.75 2.24 0 0-1.12 5.28.64 8.48 1.76 3.2-12.8 1.28-12.8 1.28l-.63-11.35 3-.64zm42.37 13.75c2.55-.8 4.3-3.67 2.23-6.4-2.23-2.7-4.15-3.2-1.28-3.35 2.88-.16 13.43 6.24 13.43 6.24l-5.43 4.95-8.95-1.5zm-48.3-56.9c3.7 1.27 9.3 1.6 14.08 1.43 4.8-.16 12-.8 16.63-2.4 4.7-1.6 2.8 1.76 2.8 1.76l-2.5 2.4s-6.1 2.4-16 2.24c-11.6-.16-15.1-1.44-15.1-1.44l.4-4zm.33 7.98c3.68 1.28 9.28 1.6 14.07 1.44 4.8-.16 11.2-.16 15.83-1.92 1.92-.63.8 2.08.8 2.08l-.8 1.44s-6.24 2.24-16 2.08c-11.66-.16-13.74-1.12-13.74-1.12l-.2-4z"/><path d="M174.45 406.9s13.9 4.95 29.58 1.6c0 0-6.08 28.6-3.36 43.3 0 0 2.72 3.85 22.86 11.2 0 0 8.96 2.24 8.64 6.72 0 0 .32.96-10.55.64-10.88-.32-21.1-2.24-28.3-2.24-7.2 0-14.87.32-16.15-1.76-1.44-1.92.32-6.87 2.4-9.75 2.24-3 1.6-5.2 1.44-10.7-.4-14-11.3-28.7-6.5-39z"/><path d="M174.45 406.9s13.9 4.78 29.58 1.43c0 0-6.08 28.77-3.36 43.48 0 0 2.72 3.9 22.86 11.2 0 0 8.96 2.3 8.64 6.8 0 0 .32 1-10.55.7-10.88-.3-21.27-3.3-28.3-2.2-7.5 1.3-14.87.8-16.15-1.7-1.12-2.1.32-6.9 2.4-9.7 2.24-3 1.6-5.2 1.44-10.7-.4-14-11.3-28.8-6.5-39zm-12.47-95.13c0 1.12 12.47 7.35 19.35 8.63 6.87 1.28 21.26 0 23.5-.48l-.32 2.24s-17.1 2.56-30.2-.96c-13.1-3.52-11.6-4.32-11.6-4.32l-.6-5.1zm-26.7 136.37c1.92.96 8.8 2.7 13.27 1.75.64-.2 0-11.1 1.76-16 2.6-6.9 6.8-12.5 8.7-24.6-6.7-.7-14.4-2.4-18.4-3.7-5.1 15.6-3.3 29.1-5.2 42.5zM146 458.2c1.12.33 1.9 1.6 2.24.8.63-1.43-1.12-4.15-1.28-6.07v-.16c-1.44-1.28-11.2-1.44-10.55-.8-1.1 2.08-2.8 1.76-3.5 5.92-.3 2 2.3.3 4.7.1-4.3 2.8-9.2 6.5-10 9.7-.9 4.4.7 5.7 5.5 8.1 4.2.9 9.1 1.1 13 .9 4.3-.8 5.1-2.9 3.9-5.8-1.9-4.4-3.2-10-3.6-13zm1.75-207.66c5.28 3.03 12.63 2.24 15.35 2.08.64 0 7.04-1.12 7.36-.96.64.16.64.64.64.64s-2.4 1.27-7.84 1.6c-5.1.3-11.2 0-14.54-1.6-4-1.76-.96-1.76-.96-1.76zm54.36 3.03c1 .64 7.2 3.04 10 5.92 2.4 2.5 1.1 2.4.7 1.7-.6-.8-5.6-4.2-7.5-5-1.9-.8-4.3-2.3-4.3-2.6 0-.3 1.3-.2 1.3-.2zM147 319.92c4.64-.32 9.44.8 12.47 4 1.6 1.6 4.16 3.35 3.84 4.95 0 .48-.9 1.76-1.7 2.72-.4.6-1.9 2-2.4 2.5-.6.5-2.8 2.2-3.3 2.5-.5.3-1.1 1.1-1.6 1.3-1.6.8-3.3.1-4.9-.7s.3-1-1.4-2.3c-4.3-3-6.7-5.1-5-11 .2-1.2 2-2.4 4.2-4.2zm-40.8-36.62c-14.4 5.77-51 24-61.4 29.6 8.63 5.42 12.63 18.53 13.9 31.8l.5 3.68c.15 1.12.3 1.92.47 2.4 0 .16 0 .48.16.64 9.43-25.74 43.16-52.92 44.44-55 .64-.96-.8-5.12 1.44-9.1 2.9-5.13 8.5-7.37.5-4zM140.4 404c7.35-14.7 7.5-28.77 7.35-45.23 0-6.88 4.96-16.63 2.4-13.9-9.6 10.7-33.73 30.85-51.15 31.96 24.46-.8 34.05 11.5 41.4 27.18z"/><path d="M30.73 326.48c9.1-6.56 56.28-31.66 67.63-35.18 11.35-3.67 7.83-8 7.83-8s-46.1 19.83-73.6 36.94M165 280.27c-3.67-1.43-6.54 2.88-5.6 7.04.98 4.2 9.6 8.8 9.13 24-.32 12.5-3.04 17.6-3.04 17.6l-6.1-7.6s-1-17.2-3.1-19.8-8.7-7.2-11.2-9.6c-2.6-2.4 2.8-5.6 2.5-10.1-.3-4.3 2.7-12.9 2.7-12.9l14.7 11.4zm22.23 68.1c-.32 12 2.4 29.74 3.52 38.22 1.12 8.4 2.56 9.1 0 12.9-2.56 3.6-5.9 9.7-5.9 9.7l-11.05-1s8.8-11.2 9.3-13.3c.47-2.1-4.48-17.9-4.48-17.9l8.64-28.8zm-21.26-111.9c2.24 4.96 4.96 7.2 9.27 8.63 2.56.96 12.63 2.24 16.63-2.24 1.76-2.07.64-7.67.64-7.67l-9.1 7.3-12.3-2.3-1.4-3.7-3.7-.2zm.96 11.03c4.16 2.72 14.55 5.28 17.43 5.76 2.87.64 7.5-3.04 9.75-4 2.4-1.12 6.6-1.76 11.4 2.56.5.48-1.1 2.56-1.1 2.56-.1-.16-1.1-.16-2.4-.8-1.3-.64-2.4-1.12-4.3-.96-8 .96-9.2 3.67-16.3 2.07-7-1.6-8.8-2.9-15.6-2.6"/><path d="M165.5 247.98c5.28 2.24 15.5 4.64 18.4 5.28 2.86.64 7.5-2.24 9.74-3.68 4-2.56 9.1-.48 11.5 2.24 1.6 1.76 2.25 2.87 2.25 3.35 0 .64-2 0-2 0-1.1-.48-2.4-.63-3.4-1.28-1.3-.7-2.6-1.6-4.5-1.5-8 .9-9.6 3.6-16.5 2s-8.7-3.1-16-2.6m-24.4 145.3c-.4-.4.3-.7 0-.7-2.1 0-5-1.6-6.6-3.9-6.9-9.9-17-16.5-35.2-16-27.3.6-38.2-10.6-40.3-32-1.1-11.7-4.3-23-10.8-29.4l-3.7 2.6c7.3 6.4 9.7 16.8 11.3 31 2.5 21.4 19.8 31.3 39.9 31.62 20.92.36 28.43 4.7 36.3 15.2 2.52 3.4 5.4 4.5 7.64 5l1.4-3.37zm74.1-102.8c.4 2.4 1.7 7 4.3 9.2 1.1 1.1 1.3 1.4.3 1.4s-8-.3-8-.3l-2-3.4 5.3-7.06z"/></symbol>

	<symbol id="happy" viewBox="0 0 512 512"><title>happy</title><path d="M256,32C132.288,32,32,132.288,32,256s100.288,224,224,224s224-100.288,224-224S379.712,32,256,32z M103.272,253.324
		c-8.272-5.574-9.249-15.145-3.747-22.207C110.074,217.573,123.25,208,144.137,208s34.174,9.593,44.655,23.174
		c5.464,7.076,3.765,17.011-3.787,22.144c-2.915,1.975-6.341,2.683-9.922,2.683c-5.412,0-10.539-2.119-13.716-6.223
		c-3.398-4.416-7.621-9.777-17.23-9.777c-9.561,0-13.818,5.387-17.269,9.821c-3.163,4.069-8.274,6.178-13.669,6.179
		C109.618,256,106.186,255.287,103.272,253.324z M394.245,310.945C370.607,356.719,316.344,384,256.004,384
		c-61.869,0-117.55-28.235-138.556-73.677c-3.663-7.939-0.191-17.383,7.734-21.057c2.137-0.978,4.363-1.463,6.658-1.463
		c6.163,0,11.818,3.61,14.407,9.199C162.164,331.438,206.27,352,256.004,352c48.602,0,91.8-20.269,110.053-55.615
		c2.746-5.301,8.148-8.588,14.104-8.588c2.532,0,5.06,0.621,7.308,1.796C395.201,293.598,398.254,303.184,394.245,310.945z
		 M409.006,253.317c-2.915,1.975-6.341,2.683-9.922,2.683c-5.412,0-10.539-2.119-13.717-6.223c-3.398-4.416-7.62-9.777-17.23-9.777
		c-9.561,0-13.817,5.387-17.268,9.821c-3.163,4.069-8.275,6.178-13.67,6.179c-3.581,0-7.014-0.713-9.928-2.676
		c-8.271-5.574-9.248-15.145-3.746-22.207C334.074,217.573,347.25,208,368.137,208c20.888,0,34.175,9.593,44.656,23.174
		C418.257,238.25,416.558,248.185,409.006,253.317z"/></symbol>

	<symbol id="home" viewBox="0 0 512 512"><title>home</title><g fill="#002F2F"><path d="M256 112L96 240v208h112V320h96v128h112V240L256 112zm144 320h-80V304H192v128h-80V247.69l144-115.2 144 115.2V432z"/><path d="M256 64l-96 76.8V96H96v95.999l-32 25.499 11.51 11.384L256 84.49l180.49 144.393L448 217.498 256 64zm-112 89.599l-32 25.6V112h32v41.599z"/></g></symbol>

	<symbol id="input" viewBox="0 0 404 77" preserveAspectRatio="none"><path d="m0,0l404,0l0,77l-404,0l0,-77z"/></symbol>

	<symbol id="link" viewBox="0 0 512 512"><title>demo</title><path d="M256.5 208h-.5.5zm112-48H320s26 17 31.6 48h16.9c17.6 0 31.5 13.9 31.5 31.5v32c0 17.6-13.9 32.5-31.5 32.5h-112c-17.6 0-32.5-14.9-32.5-32.5V240h-48v31.5c0 11.5 2.5 22.5 6.9 32.5 12.6 28.2 40.9 48 73.6 48h112c44.2 0 79.5-36.3 79.5-80.5v-32c0-44.2-35.3-79.5-79.5-79.5z"/><path d="M329.6 208c-12.1-28.3-40.1-48-73.1-48h-112c-44.2 0-80.5 35.3-80.5 79.5v32c0 44.2 36.3 80.5 80.5 80.5H192s-25.8-17-32.1-48h-15.4c-17.6 0-32.5-14.9-32.5-32.5v-32c0-17.6 14.9-31.5 32.5-31.5h112c17.6 0 31.5 13.9 31.5 31.5V272h48v-32.5c0-11.2-2.3-21.9-6.4-31.5z"/></symbol>

	<symbol id="person" viewBox="0 0 512 512"><title>skills</title><path d="M202.4 201.7zm160.9 162.2c-12.9-4.6-31.4-6.2-43.2-8.8-6.8-1.5-16.7-5.3-20-9.2-3.3-4-1.3-40.9-1.3-40.9s6.1-9.6 9.4-18 6.9-31.4 6.9-31.4 6.8 0 9.2-11.9c2.6-13 6.6-18.4 6.1-28.1-.5-9-5.2-9.5-5.7-9.5 0 0 4.9-13.6 5.6-42.4C331.1 129.6 305 96 256 96s-75 33.5-74.3 67.6c.6 28.7 5.6 42.4 5.6 42.4-.5 0-5.2.5-5.7 9.5-.5 9.7 3.6 14.9 6.1 27.9 2.4 11.9 9.2 12 9.2 12s3.6 23.1 6.9 31.5c3.3 8.5 9.4 18 9.4 18s2 36.9-1.3 40.9-13.2 7.7-20 9.2c-11.9 2.6-30.3 4.3-43.2 8.9C135.8 368.5 96 384 96 416h320c0-32-39.8-47.5-52.7-52.1zM256 400H118.7c2-3 4.7-5.1 8.2-7.6 7-5.1 16.1-9.8 27.1-13.6 6.8-2.4 16.7-4 25.4-5.3 5.7-.9 11.1-1.7 15.9-2.8 3.4-.8 20.8-5 28.8-14.6 4.5-5.4 5.8-12.7 5.6-32.3-.1-10-.6-19.3-.6-19.7l-.2-4.2-2.3-3.5c-1.5-2.3-5.8-9.5-8-15.3-1.8-4.7-4.6-19.2-6-28.1 0 0 .4 1-.5-3.7s-8.4-4.3-9.4-8c-.9-3.6-1.8-6.9-4.3-18.2-2.5-11.3 2.8-11.2 3.9-16.2.6-3.1 0-5.7 0-5.8-.3-1-4.1-13.4-4.7-37.7-.3-13.2 4.6-25.6 13.8-34.9 10.6-10.8 26-16.5 44.5-16.5 19 0 34 5.7 44.6 16.5 9.2 9.3 14.1 21.7 13.8 34.9-.5 24.2-4.3 36.6-4.7 37.7 0 .1-.6 1.7-.4 5.2.2 5.4 6.8 5.5 4.3 16.8s-3.4 14.6-4.3 18.2c-.9 3.6-8.5 3.3-9.4 8-.9 4.7-.5 3.7-.5 3.7-1.4 8.9-4.2 23.4-6 28.1-2.3 5.8-6.6 13-8 15.3l-2.3 3.5-.2 4.2c0 .4-.5 9.7-.6 19.7-.2 19.6 1.1 26.9 5.6 32.3 8 9.5 25.4 13.8 28.8 14.6 4.8 1.1 10.2 1.9 15.9 2.8 8.7 1.3 18.6 2.9 25.4 5.3 11 3.9 20.2 8.6 27.1 13.7 3.5 2.5 6.2 4.6 8.2 7.6L256 400z" fill="#002F2F"/></symbol>

	<symbol id="textarea" viewBox="0 0 404 300" preserveAspectRatio="none"><path d="m0,0l404,0l0,300l-404,0l0,-300z"/></symbol>

	<symbol id="work" viewBox="0 0 512 512"><title>work</title><path fill="#002F2F" d="M496 384V96H16v288h175v16h-64v16h257v-16h-64v-16h176zM32 112h448v256H32V112z"/></symbol>

</svg>
